<svg xmlns="http://www.w3.org/2000/svg" version="1.1" width="3300" height="2000"><g id="Notes"><style>
    text {
      font-family: monospace;
      text-anchor: middle;
    }
    text.emphasis {
      font-weight:bold;
    }
    text.lanchor {
      text-anchor: start;
    }
  </style><rect height="2200" id="artboard" fill="white" width="3300" x="0" y="0"/><line id="" style="fill:none;stroke:black;stroke-width:0.5;" x1="263" x2="3036" y1="292" y2="292"/><text class="lanchor emphasis" transform="matrix(1 0 0 1 263 322)">Weight/Scale Variations</text><text transform="matrix(1 0 0 1 559.711 322)">Ultralight</text><text transform="matrix(1 0 0 1 856.422 322)">Thin</text><text transform="matrix(1 0 0 1 1153.13 322)">Light</text><text transform="matrix(1 0 0 1 1449.84 322)">Regular</text><text transform="matrix(1 0 0 1 1746.56 322)">Medium</text><text transform="matrix(1 0 0 1 2043.27 322)">Semibold</text><text transform="matrix(1 0 0 1 2339.98 322)">Bold</text><text transform="matrix(1 0 0 1 2636.69 322)">Heavy</text><text transform="matrix(1 0 0 1 2933.4 322)">Black</text><text id="template-version" style="text-anchor: end;" transform="matrix(1 0 0 1 3036 1933)">Template v.1.0</text><text class="lanchor" transform="matrix(1 0 0 1 263 726)">Small</text><text class="lanchor" transform="matrix(1 0 0 1 263 1156)">Medium</text><text class="lanchor" transform="matrix(1 0 0 1 263 1586)">Large</text></g><g id="Guides"><g id="H-reference" style="fill:#27AAE1;stroke:none;" transform="matrix(1 0 0 1 339 696)"><path d="M 54.9316 0 L 57.666 0 L 30.5664 -70.459 L 28.0762 -70.459 L 0.976562 0 L 3.66211 0 L 12.9395 -24.4629 L 45.7031 -24.4629 Z M 29.1992 -67.0898 L 29.4434 -67.0898 L 44.8242 -26.709 L 13.8184 -26.709 Z"/></g><line id="Baseline-S" style="fill:none;stroke:#27AAE1;opacity:1;stroke-width:0.577;" x1="263" x2="3036" y1="696" y2="696"/><line id="Capline-S" style="fill:none;stroke:#27AAE1;opacity:1;stroke-width:0.577;" x1="263" x2="3036" y1="625.541" y2="625.541"/><g id="H-reference" style="fill:#27AAE1;stroke:none;" transform="matrix(1 0 0 1 339 1126)"><path d="M 54.9316 0 L 57.666 0 L 30.5664 -70.459 L 28.0762 -70.459 L 0.976562 0 L 3.66211 0 L 12.9395 -24.4629 L 45.7031 -24.4629 Z M 29.1992 -67.0898 L 29.4434 -67.0898 L 44.8242 -26.709 L 13.8184 -26.709 Z"/></g><line id="Baseline-M" style="fill:none;stroke:#27AAE1;opacity:1;stroke-width:0.577;" x1="263" x2="3036" y1="1126" y2="1126"/><line id="Capline-M" style="fill:none;stroke:#27AAE1;opacity:1;stroke-width:0.577;" x1="263" x2="3036" y1="1055.54" y2="1055.54"/><g id="H-reference" style="fill:#27AAE1;stroke:none;" transform="matrix(1 0 0 1 339 1556)"><path d="M 54.9316 0 L 57.666 0 L 30.5664 -70.459 L 28.0762 -70.459 L 0.976562 0 L 3.66211 0 L 12.9395 -24.4629 L 45.7031 -24.4629 Z M 29.1992 -67.0898 L 29.4434 -67.0898 L 44.8242 -26.709 L 13.8184 -26.709 Z"/></g><line id="Baseline-L" style="fill:none;stroke:#27AAE1;opacity:1;stroke-width:0.577;" x1="263" x2="3036" y1="1556" y2="1556"/><line id="Capline-L" style="fill:none;stroke:#27AAE1;opacity:1;stroke-width:0.577;" x1="263" x2="3036" y1="1485.54" y2="1485.54"/><rect height="119.336" id="left-margin" style="fill:darkred;stroke:none;opacity:0.4;" width="12.4512" x="1394.06" y="1030.79"/><rect height="119.336" id="right-margin" style="fill:darkgreen;stroke:none;opacity:0.4;" width="12.4512" x="1502.5112" y="1030.79"/><rect x="1406.5112" y="1045" width="96" height="96" fill="none" stroke="blue" stroke-dasharray="5"/><rect x="1394.06" y="1030.79" width="120.9024" height="119.336" fill="none" stroke="blue"/></g><g id="Symbols"><g id="Bold-L" transform="matrix(1 0 0 1 2266 1556)"><path d="M24.026 -91.022  35.959 -66.512 H56.921 L44.989 -91.022 H59.34 L71.273 -66.512 H92.235 L80.303 -91.022 H94.654 L106.586 -66.512 H127.549 L115.616 -91.022 H130.774 Q137.137 -91.022 141.615 -86.545 Q146.093 -82.067 146.093 -75.704 V5.244 Q146.093 11.541 141.615 15.971 Q137.137 20.401 130.774 20.401 H24.026 Q17.729 20.401 13.299 16.128 Q8.869 11.855 8.869 5.566 V-75.704 Q8.869 -82.067 13.299 -86.545 Q17.729 -91.022 24.026 -91.022 Z M24.026 -51.194 V5.244 Q24.026 5.244 24.026 5.244 Q24.026 5.244 24.026 5.244 H130.774 Q130.774 5.244 130.774 5.244 Q130.774 5.244 130.774 5.244 V-51.194 H24.026 Z"/></g><g id="Semibold-L" transform="matrix(1 0 0 1 1970.27 1556)"><path d="M23.395 -89.2  35.328 -64.69 H56.29 L44.358 -89.2 H58.709 L70.642 -64.69 H91.604 L79.672 -89.2 H94.023 L105.955 -64.69 H126.918 L114.985 -89.2 H131.405 Q136.684 -89.2 140.477 -85.407 Q144.27 -81.614 144.27 -76.335 V5.875 Q144.27 11.116 140.477 14.882 Q136.684 18.649 131.405 18.649 H23.395 Q18.154 18.649 14.388 14.971 Q10.621 11.294 10.621 6.057 V-76.335 Q10.621 -81.614 14.388 -85.407 Q18.154 -89.2 23.395 -89.2 Z M23.395 -51.825 V5.875 Q23.395 5.875 23.395 5.875 Q23.395 5.875 23.395 5.875 H131.405 Q131.405 5.875 131.405 5.875 Q131.405 5.875 131.405 5.875 V-51.825 H23.395 Z"/></g><g id="Medium-L" transform="matrix(1 0 0 1 1674.31 1556)"><path d="M22.922 -87.833  34.855 -63.323 H55.817 L43.885 -87.833 H58.236 L70.168 -63.323 H91.131 L79.198 -87.833 H93.55 L105.482 -63.323 H126.445 L114.512 -87.833 H131.878 Q136.344 -87.833 139.623 -84.553 Q142.903 -81.274 142.903 -76.808 V6.348 Q142.903 10.798 139.623 14.066 Q136.344 17.334 131.878 17.334 H22.922 Q18.472 17.334 15.204 14.104 Q11.936 10.873 11.936 6.425 V-76.808 Q11.936 -81.274 15.204 -84.553 Q18.472 -87.833 22.922 -87.833 Z M22.922 -52.298 V6.348 Q22.922 6.348 22.922 6.348 Q22.922 6.348 22.922 6.348 H131.878 Q131.878 6.348 131.878 6.348 Q131.878 6.348 131.878 6.348 V-52.298 H22.922 Z"/></g><g id="Regular-L" transform="matrix(1 0 0 1 1378.56 1556)"><path d="M22.575 -86.83  34.508 -62.32 H55.47 L43.538 -86.83 H57.889 L69.821 -62.32 H90.784 L78.851 -86.83 H93.203 L105.135 -62.32 H126.097 L114.165 -86.83 H132.225 Q136.095 -86.83 138.998 -83.927 Q141.9 -81.025 141.9 -77.155 V6.695 Q141.9 10.565 138.998 13.468 Q136.095 16.37 132.225 16.37 H22.575 Q18.705 16.37 15.803 13.468 Q12.9 10.565 12.9 6.695 V-77.155 Q12.9 -81.025 15.803 -83.927 Q18.705 -86.83 22.575 -86.83 Z M22.575 -52.645 V6.695 Q22.575 6.695 22.575 6.695 Q22.575 6.695 22.575 6.695 H132.225 Q132.225 6.695 132.225 6.695 Q132.225 6.695 132.225 6.695 V-52.645 H22.575 Z"/></g><g id="Light-L" transform="matrix(1 0 0 1 1082.77 1556)"><path d="M25.428 -83.605  35.996 -61.948 H56.524 L45.956 -83.605 H59.935 L70.503 -61.948 H91.032 L80.464 -83.605 H94.381 L105.011 -61.948 H125.539 L114.909 -83.605 H129.372 Q133.166 -83.605 135.92 -80.85 Q138.675 -78.096 138.675 -74.302 V3.842 Q138.675 7.636 135.92 10.39 Q133.166 13.145 129.372 13.145 H25.428 Q21.634 13.145 18.88 10.39 Q16.125 7.636 16.125 3.842 V-74.302 Q16.125 -78.096 18.88 -80.85 Q21.634 -83.605 25.428 -83.605 Z M23.443 -54.63 V3.842 Q23.443 4.71 24.002 5.268 Q24.56 5.827 25.428 5.827 H129.372 Q130.24 5.827 130.798 5.268 Q131.357 4.71 131.357 3.842 V-54.63 H23.443 Z"/></g><g id="Thin-L" transform="matrix(1 0 0 1 787.282 1556)"><path d="M28.281 -80.38  37.484 -61.576 H57.579 L48.375 -80.38 H61.982 L71.186 -61.576 H91.28 L82.076 -80.38 H95.559 L104.887 -61.576 H124.981 L115.653 -80.38 H126.519 Q130.237 -80.38 132.844 -77.774 Q135.45 -75.167 135.45 -71.449 V0.989 Q135.45 4.707 132.844 7.314 Q130.237 9.92 126.519 9.92 H28.281 Q24.563 9.92 21.956 7.314 Q19.35 4.707 19.35 0.989 V-71.449 Q19.35 -75.167 21.956 -77.774 Q24.563 -80.38 28.281 -80.38 Z M24.312 -56.614 V0.989 Q24.312 2.726 25.428 3.842 Q26.544 4.958 28.281 4.958 H126.519 Q128.256 4.958 129.372 3.842 Q130.488 2.726 130.488 0.989 V-56.614 H24.312 Z"/></g><g id="Ultralight-L" transform="matrix(1 0 0 1 491.205 1556)"><path d="M29.992 -78.445  38.377 -61.352 H58.211 L49.826 -78.445 H63.21 L71.595 -61.352 H91.429 L83.044 -78.445 H96.266 L104.812 -61.352 H124.646 L116.1 -78.445 H124.808 Q128.48 -78.445 130.998 -75.928 Q133.515 -73.41 133.515 -69.737 V-0.722 Q133.515 2.95 130.998 5.467 Q128.48 7.985 124.808 7.985 H29.992 Q26.32 7.985 23.803 5.467 Q21.285 2.95 21.285 -0.722 V-69.737 Q21.285 -73.41 23.803 -75.928 Q26.32 -78.445 29.992 -78.445 Z M24.832 -57.805 V-0.722 Q24.832 1.535 26.284 2.986 Q27.735 4.438 29.992 4.438 H124.808 Q127.065 4.438 128.516 2.986 Q129.968 1.535 129.968 -0.722 V-57.805 H24.832 Z"/></g><g id="Bold-M" transform="matrix(1 0 0 1 2281.8 1126)"><path d="M21.5 -79.48  31.5 -59.48 H46.5 L36.5 -79.48 H46.5 L56.5 -59.48 H71.5 L61.5 -79.48 H71.5 L81.5 -59.48 H96.5 L86.5 -79.48 H98.5 Q105.125 -79.48 109.688 -74.917 Q114.25 -70.355 114.25 -63.73 V-6.73 Q114.25 -0.105 109.688 4.458 Q105.125 9.02 98.5 9.02 H21.5 Q14.875 9.02 10.312 4.583 Q5.75 0.145 5.75 -6.355 V-63.73 Q5.75 -70.355 10.312 -74.917 Q14.875 -79.48 21.5 -79.48 Z M21.5 -43.73 V-6.73 Q21.5 -6.73 21.5 -6.73 Q21.5 -6.73 21.5 -6.73 H98.5 Q98.5 -6.73 98.5 -6.73 Q98.5 -6.73 98.5 -6.73 V-43.73 H21.5 Z"/></g><g id="Semibold-M" transform="matrix(1 0 0 1 1985.97 1126)"><path d="M20.848 -77.632  30.848 -57.632 H45.848 L35.848 -77.632 H45.848 L55.848 -57.632 H70.848 L60.848 -77.632 H70.848 L80.848 -57.632 H95.848 L85.848 -77.632 H99.152 Q104.69 -77.632 108.546 -73.776 Q112.402 -69.92 112.402 -64.382 V-6.078 Q112.402 -0.54 108.546 3.316 Q104.69 7.172 99.152 7.172 H20.848 Q15.31 7.172 11.454 3.387 Q7.598 -0.398 7.598 -5.866 V-64.382 Q7.598 -69.92 11.454 -73.776 Q15.31 -77.632 20.848 -77.632 Z M20.848 -44.382 V-6.078 Q20.848 -6.078 20.848 -6.078 Q20.848 -6.078 20.848 -6.078 H99.152 Q99.152 -6.078 99.152 -6.078 Q99.152 -6.078 99.152 -6.078 V-44.382 H20.848 Z"/></g><g id="Medium-M" transform="matrix(1 0 0 1 1689.91 1126)"><path d="M20.359 -76.246  30.359 -56.246 H45.359 L35.359 -76.246 H45.359 L55.359 -56.246 H70.359 L60.359 -76.246 H70.359 L80.359 -56.246 H95.359 L85.359 -76.246 H99.641 Q104.364 -76.246 107.69 -72.92 Q111.016 -69.594 111.016 -64.871 V-5.589 Q111.016 -0.866 107.69 2.46 Q104.364 5.786 99.641 5.786 H20.359 Q15.636 5.786 12.31 2.49 Q8.984 -0.806 8.984 -5.499 V-64.871 Q8.984 -69.594 12.31 -72.92 Q15.636 -76.246 20.359 -76.246 Z M20.359 -44.871 V-5.589 Q20.359 -5.589 20.359 -5.589 Q20.359 -5.589 20.359 -5.589 H99.641 Q99.641 -5.589 99.641 -5.589 Q99.641 -5.589 99.641 -5.589 V-44.871 H20.359 Z"/></g><g id="Regular-M" transform="matrix(1 0 0 1 1394.06 1126)"><path d="M20 -75.23  30 -55.23 H45 L35 -75.23 H45 L55 -55.23 H70 L60 -75.23 H70 L80 -55.23 H95 L85 -75.23 H100 Q104.125 -75.23 107.062 -72.292 Q110 -69.355 110 -65.23 V-5.23 Q110 -1.105 107.062 1.833 Q104.125 4.77 100 4.77 H20 Q15.875 4.77 12.938 1.833 Q10 -1.105 10 -5.23 V-65.23 Q10 -69.355 12.938 -72.292 Q15.875 -75.23 20 -75.23 Z M20 -45.23 V-5.23 Q20 -5.23 20 -5.23 Q20 -5.23 20 -5.23 H100 Q100 -5.23 100 -5.23 Q100 -5.23 100 -5.23 V-45.23 H20 Z"/></g><g id="Light-M" transform="matrix(1 0 0 1 1098.18 1126)"><path d="M21.539 -72.73  30.288 -55.23 H45.288 L36.539 -72.73 H46.539 L55.288 -55.23 H70.288 L61.539 -72.73 H71.539 L80.288 -55.23 H95.288 L86.539 -72.73 H98.461 Q102.25 -72.73 104.875 -70.105 Q107.5 -67.48 107.5 -63.691 V-6.769 Q107.5 -2.98 104.875 -0.355 Q102.25 2.27 98.461 2.27 H21.539 Q17.75 2.27 15.125 -0.355 Q12.5 -2.98 12.5 -6.769 V-63.691 Q12.5 -67.48 15.125 -70.105 Q17.75 -72.73 21.539 -72.73 Z M20 -47.73 V-6.769 Q20 -6.095 20.433 -5.663 Q20.866 -5.23 21.539 -5.23 H98.461 Q99.135 -5.23 99.567 -5.663 Q100 -6.095 100 -6.769 V-47.73 H20 Z"/></g><g id="Thin-M" transform="matrix(1 0 0 1 802.565 1126)"><path d="M23.077 -70.23  30.577 -55.23 H45.577 L38.077 -70.23 H48.077 L55.577 -55.23 H70.577 L63.077 -70.23 H73.077 L80.577 -55.23 H95.577 L88.077 -70.23 H96.923 Q100.375 -70.23 102.688 -67.917 Q105 -65.605 105 -62.153 V-8.307 Q105 -4.855 102.688 -2.542 Q100.375 -0.23 96.923 -0.23 H23.077 Q19.625 -0.23 17.312 -2.542 Q15 -4.855 15 -8.307 V-62.153 Q15 -65.605 17.312 -67.917 Q19.625 -70.23 23.077 -70.23 Z M20 -50.23 V-8.307 Q20 -6.961 20.865 -6.095 Q21.731 -5.23 23.077 -5.23 H96.923 Q98.269 -5.23 99.135 -6.095 Q100 -6.961 100 -8.307 V-50.23 H20 Z"/></g><g id="Ultralight-M" transform="matrix(1 0 0 1 506.415 1126)"><path d="M24 -68.73  30.75 -55.23 H45.75 L39 -68.73 H49 L55.75 -55.23 H70.75 L64 -68.73 H74 L80.75 -55.23 H95.75 L89 -68.73 H96 Q99.25 -68.73 101.375 -66.605 Q103.5 -64.48 103.5 -61.23 V-9.23 Q103.5 -5.98 101.375 -3.855 Q99.25 -1.73 96 -1.73 H24 Q20.75 -1.73 18.625 -3.855 Q16.5 -5.98 16.5 -9.23 V-61.23 Q16.5 -64.48 18.625 -66.605 Q20.75 -68.73 24 -68.73 Z M20 -51.73 V-9.23 Q20 -7.48 21.125 -6.355 Q22.25 -5.23 24 -5.23 H96 Q97.75 -5.23 98.875 -6.355 Q100 -7.48 100 -9.23 V-51.73 H20 Z"/></g><g id="Bold-S" transform="matrix(1 0 0 1 2294.23 696)"><path d="M22.486 -66.987  29.588 -52.785 H39.056 L31.955 -66.987 H39.056 L46.157 -52.785 H55.625 L48.524 -66.987 H55.625 L62.726 -52.785 H72.194 L65.093 -66.987 H76.928 Q81.829 -66.987 85.197 -63.585 Q88.565 -60.182 88.565 -55.349 V-15.11 Q88.565 -10.278 85.197 -6.875 Q81.829 -3.473 76.928 -3.473 H17.753 Q12.92 -3.473 9.517 -6.777 Q6.115 -10.081 6.115 -14.815 V-55.349 Q6.115 -60.182 9.419 -63.585 Q12.723 -66.987 17.753 -66.987 H22.486 Z M17.753 -41.147 V-15.11 Q17.753 -15.11 17.753 -15.11 Q17.753 -15.11 17.753 -15.11 H76.928 Q76.928 -15.11 76.928 -15.11 Q76.928 -15.11 76.928 -15.11 V-41.147 H17.753 Z"/></g><g id="Semibold-S" transform="matrix(1 0 0 1 1998.1 696)"><path d="M21.972 -65.529  29.073 -51.327 H38.541 L31.44 -65.529 H38.541 L45.642 -51.327 H55.11 L48.009 -65.529 H55.11 L62.211 -51.327 H71.679 L64.578 -65.529 H77.442 Q81.486 -65.529 84.297 -62.684 Q87.107 -59.839 87.107 -55.864 V-14.596 Q87.107 -10.621 84.297 -7.776 Q81.486 -4.931 77.442 -4.931 H17.238 Q13.263 -4.931 10.418 -7.72 Q7.573 -10.509 7.573 -14.429 V-55.864 Q7.573 -59.839 10.319 -62.684 Q13.066 -65.529 17.238 -65.529 H21.972 Z M17.238 -41.662 V-14.596 Q17.238 -14.596 17.238 -14.596 Q17.238 -14.596 17.238 -14.596 H77.442 Q77.442 -14.596 77.442 -14.596 Q77.442 -14.596 77.442 -14.596 V-41.662 H17.238 Z"/></g><g id="Medium-S" transform="matrix(1 0 0 1 1701.85 696)"><path d="M21.586 -64.436  28.687 -50.234 H38.155 L31.054 -64.436 H38.155 L45.256 -50.234 H54.724 L47.623 -64.436 H54.724 L61.825 -50.234 H71.293 L64.192 -64.436 H77.828 Q81.229 -64.436 83.621 -62.009 Q86.014 -59.582 86.014 -56.25 V-14.21 Q86.014 -10.878 83.621 -8.451 Q81.229 -6.024 77.828 -6.024 H16.852 Q13.52 -6.024 11.093 -8.428 Q8.666 -10.831 8.666 -14.139 V-56.25 Q8.666 -59.582 10.995 -62.009 Q13.323 -64.436 16.852 -64.436 H21.586 Z M16.852 -42.048 V-14.21 Q16.852 -14.21 16.852 -14.21 Q16.852 -14.21 16.852 -14.21 H77.828 Q77.828 -14.21 77.828 -14.21 Q77.828 -14.21 77.828 -14.21 V-42.048 H16.852 Z"/></g><g id="Regular-S" transform="matrix(1 0 0 1 1405.73 696)"><path d="M21.303 -63.634  28.404 -49.432 H37.872 L30.771 -63.634 H37.872 L44.973 -49.432 H54.441 L47.34 -63.634 H54.441 L61.542 -49.432 H71.01 L63.909 -63.634 H78.111 Q81.04 -63.634 83.126 -61.514 Q85.212 -59.393 85.212 -56.533 V-13.927 Q85.212 -11.067 83.126 -8.946 Q81.04 -6.826 78.111 -6.826 H16.569 Q13.709 -6.826 11.588 -8.946 Q9.468 -11.067 9.468 -13.927 V-56.533 Q9.468 -59.393 11.49 -61.514 Q13.512 -63.634 16.569 -63.634 H21.303 Z M16.569 -42.331 V-13.927 Q16.569 -13.927 16.569 -13.927 Q16.569 -13.927 16.569 -13.927 H78.111 Q78.111 -13.927 78.111 -13.927 Q78.111 -13.927 78.111 -13.927 V-42.331 H16.569 Z"/></g><g id="Light-S" transform="matrix(1 0 0 1 1109.75 696)"><path d="M22.517 -61.661  28.632 -49.432 H38.1 L31.985 -61.661 H39.086 L45.201 -49.432 H54.669 L48.554 -61.661 H55.655 L61.77 -49.432 H71.238 L65.123 -61.661 H76.897 Q79.561 -61.661 81.4 -59.788 Q83.239 -57.914 83.239 -55.319 V-15.141 Q83.239 -12.546 81.4 -10.672 Q79.561 -8.799 76.897 -8.799 H17.783 Q15.188 -8.799 13.314 -10.672 Q11.441 -12.546 11.441 -15.141 V-55.319 Q11.441 -57.914 13.216 -59.788 Q14.991 -61.661 17.783 -61.661 H22.517 Z M16.569 -44.304 V-15.141 Q16.569 -14.61 16.91 -14.268 Q17.252 -13.927 17.783 -13.927 H76.897 Q77.428 -13.927 77.77 -14.268 Q78.111 -14.61 78.111 -15.141 V-44.304 H16.569 Z"/></g><g id="Thin-S" transform="matrix(1 0 0 1 814.015 696)"><path d="M23.731 -59.689  28.859 -49.432 H38.327 L33.199 -59.689 H40.3 L45.428 -49.432 H54.896 L49.768 -59.689 H56.869 L61.997 -49.432 H71.465 L66.337 -59.689 H75.683 Q78.081 -59.689 79.674 -58.062 Q81.267 -56.434 81.267 -54.105 V-16.355 Q81.267 -14.026 79.674 -12.398 Q78.081 -10.771 75.683 -10.771 H18.997 Q16.668 -10.771 15.04 -12.398 Q13.413 -14.026 13.413 -16.355 V-54.105 Q13.413 -56.434 14.942 -58.062 Q16.47 -59.689 18.997 -59.689 H23.731 Z M16.569 -46.276 V-16.355 Q16.569 -15.293 17.252 -14.61 Q17.935 -13.927 18.997 -13.927 H75.683 Q76.745 -13.927 77.428 -14.61 Q78.111 -15.293 78.111 -16.355 V-46.276 H16.569 Z"/></g><g id="Ultralight-S" transform="matrix(1 0 0 1 517.792 696)"><path d="M24.459 -58.505  28.996 -49.432 H38.464 L33.927 -58.505 H41.028 L45.565 -49.432 H55.033 L50.496 -58.505 H57.597 L62.134 -49.432 H71.602 L67.065 -58.505 H74.955 Q77.194 -58.505 78.639 -57.026 Q80.084 -55.547 80.084 -53.377 V-17.083 Q80.084 -14.913 78.639 -13.434 Q77.194 -11.954 74.955 -11.954 H19.725 Q17.555 -11.954 16.076 -13.434 Q14.597 -14.913 14.597 -17.083 V-53.377 Q14.597 -55.547 15.977 -57.026 Q17.358 -58.505 19.725 -58.505 H24.459 Z M16.569 -47.459 V-17.083 Q16.569 -15.702 17.457 -14.815 Q18.344 -13.927 19.725 -13.927 H74.955 Q76.336 -13.927 77.223 -14.815 Q78.111 -15.702 78.111 -17.083 V-47.459 H16.569 Z"/></g></g></svg>